<svg id="visual" viewBox="0 0 900 150" width="900" height="150" xmlns="http://www.w3.org/2000/svg" xmlns:xlink="http://www.w3.org/1999/xlink" version="1.1"><rect x="0" y="0" width="900" height="150" fill="#18181B"></rect><path d="M0 119L50 121L100 112L150 117L200 102L250 119L300 104L350 98L400 113L450 115L500 109L550 105L600 110L650 120L700 101L750 113L800 97L850 116L900 116L900 0L850 0L800 0L750 0L700 0L650 0L600 0L550 0L500 0L450 0L400 0L350 0L300 0L250 0L200 0L150 0L100 0L50 0L0 0Z" fill="#18181b"></path><path d="M0 82L50 89L100 84L150 98L200 86L250 84L300 96L350 92L400 91L450 95L500 87L550 79L600 95L650 88L700 87L750 95L800 81L850 97L900 93L900 0L850 0L800 0L750 0L700 0L650 0L600 0L550 0L500 0L450 0L400 0L350 0L300 0L250 0L200 0L150 0L100 0L50 0L0 0Z" fill="#1b2936"></path><path d="M0 59L50 68L100 59L150 59L200 73L250 75L300 63L350 75L400 65L450 62L500 71L550 68L600 75L650 59L700 67L750 72L800 71L850 76L900 71L900 0L850 0L800 0L750 0L700 0L650 0L600 0L550 0L500 0L450 0L400 0L350 0L300 0L250 0L200 0L150 0L100 0L50 0L0 0Z" fill="#003e4b"></path><path d="M0 49L50 48L100 41L150 42L200 48L250 49L300 51L350 53L400 52L450 50L500 49L550 49L600 46L650 51L700 45L750 48L800 48L850 37L900 53L900 0L850 0L800 0L750 0L700 0L650 0L600 0L550 0L500 0L450 0L400 0L350 0L300 0L250 0L200 0L150 0L100 0L50 0L0 0Z" fill="#00534d"></path><path d="M0 25L50 31L100 17L150 24L200 27L250 30L300 25L350 28L400 19L450 31L500 20L550 29L600 17L650 21L700 18L750 29L800 20L850 31L900 17L900 0L850 0L800 0L750 0L700 0L650 0L600 0L550 0L500 0L450 0L400 0L350 0L300 0L250 0L200 0L150 0L100 0L50 0L0 0Z" fill="#166534"></path></svg>