<svg id="visual" viewBox="0 0 900 150" width="900" height="150" xmlns="http://www.w3.org/2000/svg" xmlns:xlink="http://www.w3.org/1999/xlink" version="1.1"><path d="M0 27L82 27L164 24L245 21L327 25L409 22L491 19L573 24L655 19L736 25L818 25L900 21L900 0L818 0L736 0L655 0L573 0L491 0L409 0L327 0L245 0L164 0L82 0L0 0Z" fill="#18181b"></path><path d="M0 73L82 66L164 69L245 61L327 54L409 72L491 67L573 72L655 64L736 69L818 70L900 66L900 19L818 23L736 23L655 17L573 22L491 17L409 20L327 23L245 19L164 22L82 25L0 25Z" fill="#1b2936"></path><path d="M0 106L82 117L164 114L245 108L327 100L409 115L491 111L573 102L655 109L736 115L818 106L900 104L900 64L818 68L736 67L655 62L573 70L491 65L409 70L327 52L245 59L164 67L82 64L0 71Z" fill="#003e4b"></path><path d="M0 127L82 133L164 132L245 130L327 121L409 133L491 133L573 121L655 121L736 132L818 129L900 127L900 102L818 104L736 113L655 107L573 100L491 109L409 113L327 98L245 106L164 112L82 115L0 104Z" fill="#00534d"></path><path d="M0 151L82 151L164 151L245 151L327 151L409 151L491 151L573 151L655 151L736 151L818 151L900 151L900 125L818 127L736 130L655 119L573 119L491 131L409 131L327 119L245 128L164 130L82 131L0 125Z" fill="#166534"></path></svg>